<?xml version="1.0" encoding="utf-8"?>
<svg width="50px" height="50px" viewBox="0 0 50 50" version="1.1" xmlns:xlink="http://www.w3.org/1999/xlink" xmlns="http://www.w3.org/2000/svg">
  <defs>
    <path d="M0 0L50 0L50 50L0 50L0 0Z" id="path_1" />
    <clipPath id="clip_1">
      <use xlink:href="#path_1" />
    </clipPath>
  </defs>
  <g id="Instagram" clip-path="url(#clip_1)">
    <path d="M0 0L50 0L50 50L0 50L0 0Z" id="Instagram" fill="none" fill-rule="evenodd" stroke="none" />
    <path d="M16.6636 5C10.2318 5 5 10.2367 5 16.6702L5 33.3372C5 39.769 10.2367 45.0008 16.6702 45.0008L33.3372 45.0008C39.769 45.0008 45.0008 39.7641 45.0008 33.3306L45.0008 16.6636C45.0008 10.2318 39.7641 5 33.3306 5L16.6636 5L16.6636 5ZM36.6667 11.6667C37.5867 11.6667 38.3334 12.4133 38.3334 13.3334C38.3334 14.2534 37.5867 15.0001 36.6667 15.0001C35.7467 15.0001 35 14.2534 35 13.3334C35 12.4133 35.7467 11.6667 36.6667 11.6667L36.6667 11.6667ZM25.0002 15C30.5153 15 35.0004 19.4851 35.0004 25.0002C35.0004 30.5153 30.5153 35.0004 25.0002 35.0004C19.4851 35.0004 15 30.5153 15 25.0002C15 19.4851 19.4851 15 25.0002 15L25.0002 15ZM25.0001 18.3333C21.3182 18.3333 18.3333 21.3182 18.3333 25.0001C18.3333 28.6821 21.3182 31.6669 25.0001 31.6669C28.6821 31.6669 31.6669 28.6821 31.6669 25.0001C31.6669 21.3182 28.6821 18.3333 25.0001 18.3333L25.0001 18.3333Z" id="Shape" fill="#FFFFFF" fill-rule="evenodd" stroke="none" />
  </g>
</svg>